HIERARCHY
ROOT pelvis
{
  OFFSET 0 100 0
  CHANNELS 6 Xposition Yposition Zposition Zrotation Xrotation Yrotation
  JOINT pelvis_right_femur
  {
    OFFSET -10.78128 -3.44521 -0.5502486
    CHANNELS 3 Zrotation Xrotation Yrotation
    JOINT right_femur_tibia
    {
      OFFSET -0.8047443 -44.0398 -0.1307829
      CHANNELS 3 Zrotation Xrotation Yrotation
      JOINT right_tibia_foot
      {
        OFFSET 3.006224 -47.83518 -5
        CHANNELS 3 Zrotation Xrotation Yrotation
        End Site
        {
          OFFSET 0 -5 15
        }
      }
    }
  }
  JOINT pelvis_left_femur
  {
    OFFSET 10.78128 -3.44521 -0.5502486
    CHANNELS 3 Zrotation Xrotation Yrotation
    JOINT left_femur_tibia
    {
      OFFSET 0.8047443 -44.0398 -0.1307829
      CHANNELS 3 Zrotation Xrotation Yrotation
      JOINT left_tibia_foot
      {
        OFFSET -4.370144 -48.10324 -4.275266
        CHANNELS 3 Zrotation Xrotation Yrotation
        End Site
        {
          OFFSET 0 -5 15
        }
      }
    }
  }
  JOINT pelvis_spine1
  {
    OFFSET 0 6.468898 -3.129235
    CHANNELS 3 Zrotation Xrotation Yrotation
    JOINT spine1
    {
      OFFSET 0 23.15396 4.99043
      CHANNELS 3 Zrotation Xrotation Yrotation
      JOINT spine2
      {
        OFFSET 0 20.79997 -5.064912
        CHANNELS 3 Zrotation Xrotation Yrotation
        JOINT neck
        {
          OFFSET 0 14.38658 9.616178
          CHANNELS 3 Zrotation Xrotation Yrotation
          End Site
          {
            OFFSET 0 20 0
          }
        }
      }
      JOINT right_manubrium
      {
        OFFSET -5.722621 16.35077 3.967754
        CHANNELS 3 Zrotation Xrotation Yrotation
        JOINT right_clavicle
        {
          OFFSET -13.16364 1.694482 -4.693211
          CHANNELS 3 Zrotation Xrotation Yrotation
          JOINT right_humerus
          {
            OFFSET -28.5034 -0.3100689 -2.792744
            CHANNELS 3 Zrotation Xrotation Yrotation
            JOINT right_radius
            {
              OFFSET -25.15693 0.02248979 -1.271978
              CHANNELS 3 Zrotation Xrotation Yrotation
              End Site
              {
                OFFSET -15 0 0
              }
            }
          }
        }
      }
      JOINT left_manubrium
      {
        OFFSET 5.722621 16.35077 3.967754
        CHANNELS 3 Zrotation Xrotation Yrotation
        JOINT left_clavicle
        {
          OFFSET 13.16364 1.694482 -4.693211
          CHANNELS 3 Zrotation Xrotation Yrotation
          JOINT left_humerus
          {
            OFFSET 29.39168 -1.063119 -2.237045
            CHANNELS 3 Zrotation Xrotation Yrotation
            JOINT left_radius
            {
              OFFSET 24.59957 -0.9528479 0.9047498
              CHANNELS 3 Zrotation Xrotation Yrotation
              End Site
              {
                OFFSET 15 -0 -0
              }
            }
          }
        }
      }
    }
  }
}
MOTION
Frames: 11
Frame Time: 0.0416666666667
511.144 101.104 2780.732 4.403179 -8.343249 11.18586 -2.069124 10.8653 -7.664129 -0 33.4845 -0 -15.22568 1.87953 6.272527 -4.111989 -12.04662 -13.62634 -0 15.95516 -0 -6.029222 -6.54002 16.67172 -1.893645 -0.3372974 5.69094 -4.044386 10.25633 -0.4584151 0.8613103 24.448 8.902817 10.21472 -11.21104 3.886761 6.263676 -17.83963 10.89362 79.04979 33.06785 -4.488337 -0 0 19.29446 -28.90028 10.80416 10.99199 9.231385 -21.44137 -7.292278 -93.83032 9.654859 21.98763 -0 0 2.135944 16.61571 18.8377 -9.756239
513.4858 101.1088 2785.951 4.411223 -8.339021 11.24131 -2.069124 10.8653 -7.664129 -0 33.4845 -0 -15.22568 1.87953 6.272527 -4.111989 -12.04662 -13.62634 -0 15.95516 -0 -6.029222 -6.54002 16.67172 -1.893645 -0.3372974 5.69094 -4.044386 10.25633 -0.4584151 0.8613103 24.448 8.902817 10.21472 -11.21104 3.886761 6.263676 -17.83963 10.89362 79.04979 33.06785 -4.488337 -0 0 19.29446 -28.90028 10.80416 10.99199 9.231385 -21.44137 -7.292278 -93.83032 9.654859 21.98763 -0 0 2.135944 16.61571 18.8377 -9.756239
515.8326 101.1136 2791.167 4.419263 -8.334784 11.29676 -2.069124 10.8653 -7.664129 -0 33.4845 -0 -15.22568 1.87953 6.272527 -4.111989 -12.04662 -13.62634 -0 15.95516 -0 -6.029222 -6.54002 16.67172 -1.893645 -0.3372974 5.69094 -4.044386 10.25633 -0.4584151 0.8613103 24.448 8.902817 10.21472 -11.21104 3.886761 6.263676 -17.83963 10.89362 79.04979 33.06785 -4.488337 -0 0 19.29446 -28.90028 10.80416 10.99199 9.231385 -21.44137 -7.292278 -93.83032 9.654859 21.98763 -0 0 2.135944 16.61571 18.8377 -9.756239
518.1844 101.1185 2796.381 4.427299 -8.33054 11.35221 -2.069124 10.8653 -7.664129 -0 33.4845 -0 -15.22568 1.87953 6.272527 -4.111989 -12.04662 -13.62634 -0 15.95516 -0 -6.029222 -6.54002 16.67172 -1.893645 -0.3372974 5.69094 -4.044386 10.25633 -0.4584151 0.8613103 24.448 8.902817 10.21472 -11.21104 3.886761 6.263676 -17.83963 10.89362 79.04979 33.06785 -4.488337 -0 0 19.29446 -28.90028 10.80416 10.99199 9.231385 -21.44137 -7.292278 -93.83032 9.654859 21.98763 -0 0 2.135944 16.61571 18.8377 -9.756239
520.5412 101.1233 2801.592 4.435331 -8.326288 11.40766 -2.069124 10.8653 -7.664129 -0 33.4845 -0 -15.22568 1.87953 6.272527 -4.111989 -12.04662 -13.62634 -0 15.95516 -0 -6.029222 -6.54002 16.67172 -1.893645 -0.3372974 5.69094 -4.044386 10.25633 -0.4584151 0.8613103 24.448 8.902817 10.21472 -11.21104 3.886761 6.263676 -17.83963 10.89362 79.04979 33.06785 -4.488337 -0 0 19.29446 -28.90028 10.80416 10.99199 9.231385 -21.44137 -7.292278 -93.83032 9.654859 21.98763 -0 0 2.135944 16.61571 18.8377 -9.756239
522.9031 101.1281 2806.802 4.443359 -8.322029 11.46311 -2.069124 10.8653 -7.664129 -0 33.4845 -0 -15.22568 1.87953 6.272527 -4.111989 -12.04662 -13.62634 -0 15.95516 -0 -6.029222 -6.54002 16.67172 -1.893645 -0.3372974 5.69094 -4.044386 10.25633 -0.4584151 0.8613103 24.448 8.902817 10.21472 -11.21104 3.886761 6.263676 -17.83963 10.89362 79.04979 33.06785 -4.488337 -0 0 19.29446 -28.90028 10.80416 10.99199 9.231385 -21.44137 -7.292278 -93.83032 9.654859 21.98763 -0 0 2.135944 16.61571 18.8377 -9.756239
525.2699 101.1329 2812.009 4.451382 -8.317762 11.51856 -2.069124 10.8653 -7.664129 -0 33.4845 -0 -15.22568 1.87953 6.272527 -4.111989 -12.04662 -13.62634 -0 15.95516 -0 -6.029222 -6.54002 16.67172 -1.893645 -0.3372974 5.69094 -4.044386 10.25633 -0.4584151 0.8613103 24.448 8.902817 10.21472 -11.21104 3.886761 6.263676 -17.83963 10.89362 79.04979 33.06785 -4.488337 -0 0 19.29446 -28.90028 10.80416 10.99199 9.231385 -21.44137 -7.292278 -93.83032 9.654859 21.98763 -0 0 2.135944 16.61571 18.8377 -9.756239
527.6417 101.1378 2817.213 4.459401 -8.313487 11.574 -2.069124 10.8653 -7.664129 -0 33.4845 -0 -15.22568 1.87953 6.272527 -4.111989 -12.04662 -13.62634 -0 15.95516 -0 -6.029222 -6.54002 16.67172 -1.893645 -0.3372974 5.69094 -4.044386 10.25633 -0.4584151 0.8613103 24.448 8.902817 10.21472 -11.21104 3.886761 6.263676 -17.83963 10.89362 79.04979 33.06785 -4.488337 -0 0 19.29446 -28.90028 10.80416 10.99199 9.231385 -21.44137 -7.292278 -93.83032 9.654859 21.98763 -0 0 2.135944 16.61571 18.8377 -9.756239
530.0186 101.1426 2822.416 4.467415 -8.309204 11.62945 -2.069124 10.8653 -7.664129 -0 33.4845 -0 -15.22568 1.87953 6.272527 -4.111989 -12.04662 -13.62634 -0 15.95516 -0 -6.029222 -6.54002 16.67172 -1.893645 -0.3372974 5.69094 -4.044386 10.25633 -0.4584151 0.8613103 24.448 8.902817 10.21472 -11.21104 3.886761 6.263676 -17.83963 10.89362 79.04979 33.06785 -4.488337 -0 0 19.29446 -28.90028 10.80416 10.99199 9.231385 -21.44137 -7.292278 -93.83032 9.654859 21.98763 -0 0 2.135944 16.61571 18.8377 -9.756239
532.4004 101.1474 2827.616 4.475426 -8.304914 11.68489 -2.069124 10.8653 -7.664129 -0 33.4845 -0 -15.22568 1.87953 6.272527 -4.111989 -12.04662 -13.62634 -0 15.95516 -0 -6.029222 -6.54002 16.67172 -1.893645 -0.3372974 5.69094 -4.044386 10.25633 -0.4584151 0.8613103 24.448 8.902817 10.21472 -11.21104 3.886761 6.263676 -17.83963 10.89362 79.04979 33.06785 -4.488337 -0 0 19.29446 -28.90028 10.80416 10.99199 9.231385 -21.44137 -7.292278 -93.83032 9.654859 21.98763 -0 0 2.135944 16.61571 18.8377 -9.756239
534.7872 101.1522 2832.814 4.483432 -8.300616 11.74033 -2.069124 10.8653 -7.664129 -0 33.4845 -0 -15.22568 1.87953 6.272527 -4.111989 -12.04662 -13.62634 -0 15.95516 -0 -6.029222 -6.54002 16.67172 -1.893645 -0.3372974 5.69094 -4.044386 10.25633 -0.4584151 0.8613103 24.448 8.902817 10.21472 -11.21104 3.886761 6.263676 -17.83963 10.89362 79.04979 33.06785 -4.488337 -0 0 19.29446 -28.90028 10.80416 10.99199 9.231385 -21.44137 -7.292278 -93.83032 9.654859 21.98763 -0 0 2.135944 16.61571 18.8377 -9.756239
